<?xml version="1.0" encoding="UTF-8"?>
<svg xmlns="http://www.w3.org/2000/svg" xmlns:xlink="http://www.w3.org/1999/xlink" width="50pt" height="50pt" viewBox="0 0 50 50" version="1.1">
<defs>
<linearGradient id="linear0" gradientUnits="userSpaceOnUse" x1="235.8325" y1="403.4248" x2="235.8325" y2="217.3378" gradientTransform="matrix(0.0976562,0,0,0.0976562,0,0)">
<stop offset="0.0051" style="stop-color:rgb(100%,76.470588%,69.019608%);stop-opacity:1;"/>
<stop offset="1" style="stop-color:rgb(90.980392%,53.72549%,48.235294%);stop-opacity:1;"/>
</linearGradient>
<linearGradient id="linear1" gradientUnits="userSpaceOnUse" x1="272.7012" y1="277.0254" x2="272.7012" y2="145.3401" gradientTransform="matrix(0.0976562,0,0,0.0976562,0,0)">
<stop offset="0.0051" style="stop-color:rgb(100%,76.470588%,69.019608%);stop-opacity:1;"/>
<stop offset="1" style="stop-color:rgb(90.980392%,53.72549%,48.235294%);stop-opacity:1;"/>
</linearGradient>
</defs>
<g id="surface1">
<path style=" stroke:none;fill-rule:nonzero;fill:rgb(67.843137%,22.745098%,29.803922%);fill-opacity:1;" d="M 32.425781 18.164062 L 32.242188 26.328125 C 32.242188 26.328125 31.929688 33.117188 25.664062 31.757812 C 25.664062 31.757812 23.894531 26.8125 26.011719 17.144531 Z M 32.425781 18.164062 "/>
<path style=" stroke:none;fill-rule:nonzero;fill:url(#linear0);" d="M 25.8125 26.914062 C 25.8125 26.914062 24.820312 31.296875 27.421875 32.488281 C 27.746094 32.636719 28.097656 32.699219 28.449219 32.714844 C 29.542969 32.769531 33.03125 33.28125 32.335938 37.738281 C 32.335938 37.738281 30.714844 40.683594 23.191406 41.410156 C 23.191406 41.410156 16.632812 41.457031 13.636719 36.867188 C 13.636719 36.867188 14.601562 32.519531 17.453125 32.324219 C 17.453125 32.324219 18.992188 32.300781 20.136719 31.804688 C 20.769531 31.535156 21.203125 30.9375 21.289062 30.257812 L 21.996094 24.75 Z M 25.8125 26.914062 "/>
<path style=" stroke:none;fill-rule:nonzero;fill:rgb(90.980392%,53.72549%,48.235294%);fill-opacity:1;" d="M 21.992188 24.75 L 21.589844 27.917969 L 26.480469 31.757812 C 25.097656 30.078125 25.8125 26.914062 25.8125 26.914062 Z M 21.992188 24.75 "/>
<path style=" stroke:none;fill-rule:nonzero;fill:rgb(90.980392%,53.72549%,48.235294%);fill-opacity:1;" d="M 32.335938 37.738281 C 33.011719 33.386719 29.703125 32.796875 28.53125 32.71875 C 29.507812 33.390625 31.285156 35.160156 31.039062 39 C 32.023438 38.304688 32.335938 37.738281 32.335938 37.738281 Z M 32.335938 37.738281 "/>
<path style=" stroke:none;fill-rule:nonzero;fill:rgb(90.980392%,53.72549%,48.235294%);fill-opacity:1;" d="M 23.195312 39.109375 C 23.53125 39.367188 24.277344 40.082031 24.351562 41.410156 L 25.59375 41.410156 C 25.59375 41.410156 25.222656 39.699219 26.109375 38.734375 C 26.148438 38.695312 26.105469 38.632812 26.054688 38.65625 C 25.726562 38.796875 25.125 39.304688 24.808594 39.84375 C 24.808594 39.84375 24.316406 39.171875 23.234375 39.023438 C 23.183594 39.015625 23.152344 39.082031 23.195312 39.109375 Z M 23.195312 39.109375 "/>
<path style=" stroke:none;fill-rule:nonzero;fill:rgb(20%,20%,27.058824%);fill-opacity:1;" d="M 23.832031 34.007812 C 23.511719 34.007812 20.867188 33.765625 19.980469 31.648438 C 19.90625 31.472656 20 31.269531 20.183594 31.210938 C 20.335938 31.164062 20.503906 31.242188 20.566406 31.390625 C 21.335938 33.25 23.757812 33.367188 23.855469 33.367188 C 25.460938 33.367188 26.28125 32.234375 26.5625 31.738281 C 26.640625 31.605469 26.796875 31.546875 26.941406 31.597656 C 27.128906 31.664062 27.210938 31.882812 27.113281 32.054688 C 26.746094 32.691406 25.757812 34.007812 23.867188 34.007812 C 23.867188 34.007812 23.851562 34.007812 23.832031 34.007812 Z M 23.832031 34.007812 "/>
<path style=" stroke:none;fill-rule:nonzero;fill:rgb(42.745098%,30.196078%,47.843137%);fill-opacity:1;" d="M 18.21875 15.339844 L 17.65625 18.542969 C 17.65625 18.542969 13.671875 18.445312 9.125 19.789062 C 9.125 19.789062 0.628906 22.484375 1.199219 13.644531 Z M 18.21875 15.339844 "/>
<path style=" stroke:none;fill-rule:nonzero;fill:url(#linear1);" d="M 31.007812 18.054688 L 30.785156 25.652344 C 30.78125 25.726562 30.777344 25.796875 30.765625 25.871094 C 30.71875 26.1875 30.558594 27 30.03125 27.585938 C 29.589844 28.070312 28.898438 28.25 28.257812 28.121094 C 26.953125 27.859375 23.683594 27.035156 22.253906 25.113281 L 22.253906 16.472656 Z M 31.007812 18.054688 "/>
<path style=" stroke:none;fill-rule:nonzero;fill:rgb(90.980392%,53.72549%,48.235294%);fill-opacity:1;" d="M 30.03125 27.585938 C 30.554688 27 30.71875 26.1875 30.765625 25.871094 C 30.777344 25.796875 30.78125 25.726562 30.785156 25.652344 L 31.007812 18.054688 L 22.253906 16.472656 L 22.253906 18.882812 C 23.636719 19.273438 27.5 20.453125 29.347656 21.957031 C 29.601562 22.167969 29.742188 22.488281 29.742188 22.816406 L 29.742188 26.121094 C 29.742188 26.121094 29.765625 27.152344 29.28125 28.0625 C 29.5625 27.96875 29.824219 27.8125 30.03125 27.585938 Z M 30.03125 27.585938 "/>
<path style=" stroke:none;fill-rule:nonzero;fill:rgb(90.980392%,53.72549%,48.235294%);fill-opacity:1;" d="M 27.292969 22.320312 L 28.554688 22.320312 C 28.757812 22.320312 28.890625 22.53125 28.796875 22.707031 C 28.648438 22.984375 28.382812 23.304688 27.945312 23.304688 C 27.945312 23.304688 27.320312 23.296875 27.046875 22.691406 C 26.96875 22.515625 27.101562 22.320312 27.292969 22.320312 Z M 27.292969 22.320312 "/>
<path style=" stroke:none;fill-rule:nonzero;fill:rgb(20%,20%,27.058824%);fill-opacity:1;" d="M 29.382812 19.671875 C 29.179688 19.671875 29.019531 19.507812 29.019531 19.3125 L 29.019531 18.523438 C 29.019531 18.324219 29.179688 18.164062 29.382812 18.164062 C 29.578125 18.164062 29.742188 18.324219 29.742188 18.523438 L 29.742188 19.3125 C 29.742188 19.507812 29.578125 19.671875 29.382812 19.671875 Z M 29.382812 19.671875 "/>
<path style=" stroke:none;fill-rule:nonzero;fill:rgb(88.627451%,35.294118%,42.352941%);fill-opacity:1;" d="M 27.496094 17.414062 C 27.496094 17.414062 27.039062 20.878906 23.191406 22.523438 L 22.734375 29.082031 C 22.554688 31.695312 20.476562 33.832031 17.859375 33.9375 C 17.757812 33.945312 17.652344 33.945312 17.542969 33.945312 C 16.714844 33.9375 15.945312 33.515625 15.445312 32.851562 L 15.445312 32.847656 C 15.003906 32.261719 14.820312 31.527344 14.925781 30.804688 C 15.117188 29.535156 15.550781 27.394531 16.507812 25.152344 C 16.804688 24.457031 16.929688 23.703125 16.898438 22.945312 C 16.816406 20.902344 16.726562 16.894531 17.242188 15.558594 Z M 27.496094 17.414062 "/>
<path style=" stroke:none;fill-rule:nonzero;fill:rgb(67.843137%,22.745098%,29.803922%);fill-opacity:1;" d="M 16.882812 17.960938 C 18.109375 18.195312 20.894531 18.765625 22.730469 19.492188 C 23.109375 19.640625 23.257812 20.101562 23.039062 20.445312 C 22.839844 20.753906 22.566406 21.132812 22.214844 21.484375 C 21.875 21.832031 21.691406 22.300781 21.714844 22.785156 C 21.835938 25.238281 21.832031 32.476562 17.765625 33.941406 C 17.765625 33.945312 17.765625 33.9375 17.765625 33.941406 C 20.425781 33.882812 22.550781 31.726562 22.734375 29.082031 L 23.191406 22.523438 C 27.039062 20.878906 27.496094 17.414062 27.496094 17.414062 L 17.242188 15.558594 C 17.046875 16.0625 16.9375 16.945312 16.882812 17.960938 Z M 16.882812 17.960938 "/>
<path style=" stroke:none;fill-rule:nonzero;fill:rgb(57.647059%,43.529412%,62.745098%);fill-opacity:1;" d="M 1.199219 13.644531 C 1.199219 13.644531 18.191406 16.292969 33.703125 19.101562 C 33.703125 19.101562 39.308594 19.972656 42.78125 19.75 C 43.046875 19.734375 43.304688 19.671875 43.554688 19.582031 C 44.882812 19.085938 48.890625 17.234375 48.828125 12.941406 C 48.828125 12.941406 42.277344 11.375 31.75 12.28125 C 31.75 12.28125 32.675781 6.375 23.191406 0.804688 C 22.792969 0.570312 22.328125 0.484375 21.875 0.578125 C 20.578125 0.851562 17.550781 1.835938 12.570312 5.390625 C 12.570312 5.390625 11.972656 4.890625 11.195312 4.445312 C 10.785156 4.210938 10.28125 4.230469 9.882812 4.484375 C 9.15625 4.949219 7.933594 5.867188 6.847656 7.351562 C 6.578125 7.71875 6.953125 8.21875 7.382812 8.058594 C 7.96875 7.835938 8.65625 7.601562 9.226562 7.472656 C 9.640625 7.375 10.070312 7.464844 10.421875 7.699219 C 10.972656 8.066406 11.855469 8.703125 12.582031 9.460938 C 12.945312 9.835938 13.507812 9.929688 13.96875 9.6875 C 14.96875 9.15625 16.65625 8.328125 17.59375 8.222656 L 19.035156 10.132812 C 19.035156 10.132812 17.914062 11.640625 17.164062 13.191406 C 17.164062 13.191406 10.183594 14.042969 1.199219 13.644531 Z M 1.199219 13.644531 "/>
<path style=" stroke:none;fill-rule:nonzero;fill:rgb(42.745098%,30.196078%,47.843137%);fill-opacity:1;" d="M 14.949219 9.191406 C 15.863281 8.75 16.921875 8.296875 17.59375 8.222656 L 16.769531 6.890625 C 16.648438 6.6875 16.351562 6.707031 16.257812 6.921875 C 16.011719 7.464844 15.566406 8.359375 14.949219 9.191406 Z M 14.949219 9.191406 "/>
<path style=" stroke:none;fill-rule:nonzero;fill:rgb(42.745098%,30.196078%,47.843137%);fill-opacity:1;" d="M 27.640625 11.460938 C 27.679688 11.910156 27.515625 12.355469 27.179688 12.664062 C 26.976562 12.851562 26.726562 13.078125 26.46875 13.289062 C 26.222656 13.492188 26.359375 13.894531 26.679688 13.898438 C 28.644531 13.9375 32.933594 14.070312 34.957031 14.472656 C 34.957031 14.472656 37.367188 15.003906 38.15625 16.671875 C 38.359375 17.105469 38.328125 17.617188 38.0625 18.015625 C 37.773438 18.453125 37.238281 19.039062 36.328125 19.441406 C 38.25 19.65625 40.84375 19.875 42.78125 19.75 C 43.046875 19.734375 43.304688 19.671875 43.554688 19.582031 C 44.882812 19.085938 48.890625 17.234375 48.828125 12.941406 C 48.828125 12.941406 42.277344 11.375 31.75 12.28125 C 31.75 12.28125 32.675781 6.375 23.191406 0.804688 C 23.191406 0.804688 27.050781 4.496094 27.640625 11.460938 Z M 27.640625 11.460938 "/>
<path style=" stroke:none;fill-rule:nonzero;fill:rgb(100%,100%,100%);fill-opacity:1;" d="M 26.011719 34.460938 C 26.011719 33.46875 25.203125 32.660156 24.210938 32.660156 C 23.214844 32.660156 22.410156 33.46875 22.410156 34.460938 C 22.410156 35.261719 22.929688 35.9375 23.652344 36.171875 L 23.726562 36.90625 C 23.746094 37.117188 23.9375 37.269531 24.148438 37.25 L 24.882812 37.175781 C 25.09375 37.15625 25.25 36.964844 25.226562 36.753906 L 25.148438 35.996094 C 25.664062 35.679688 26.011719 35.109375 26.011719 34.460938 Z M 26.011719 34.460938 "/>
<path style=" stroke:none;fill-rule:nonzero;fill:rgb(20%,20%,27.058824%);fill-opacity:1;" d="M 24.121094 34.589844 C 24.121094 34.851562 23.910156 35.0625 23.648438 35.0625 C 23.386719 35.0625 23.175781 34.851562 23.175781 34.589844 C 23.175781 34.328125 23.386719 34.117188 23.648438 34.117188 C 23.910156 34.117188 24.121094 34.328125 24.121094 34.589844 Z M 24.121094 34.589844 "/>
<path style=" stroke:none;fill-rule:nonzero;fill:rgb(20%,20%,27.058824%);fill-opacity:1;" d="M 25.492188 34.414062 C 25.492188 34.679688 25.28125 34.890625 25.023438 34.890625 C 24.757812 34.890625 24.546875 34.679688 24.546875 34.414062 C 24.546875 34.15625 24.757812 33.941406 25.023438 33.941406 C 25.28125 33.941406 25.492188 34.15625 25.492188 34.414062 Z M 25.492188 34.414062 "/>
<path style=" stroke:none;fill-rule:nonzero;fill:rgb(57.647059%,43.529412%,62.745098%);fill-opacity:1;" d="M 12.851562 36.617188 C 13.039062 36.242188 13.53125 36.148438 13.835938 36.433594 C 15.382812 37.847656 19.800781 41.335938 25.015625 40.441406 C 25.015625 40.441406 29.605469 39.710938 32.351562 37.105469 C 32.59375 36.878906 32.972656 36.929688 33.144531 37.207031 C 33.40625 37.636719 33.824219 38.226562 34.351562 38.710938 C 34.578125 38.917969 34.679688 39.226562 34.605469 39.527344 C 34.53125 39.804688 34.410156 40.160156 34.203125 40.496094 C 33.996094 40.839844 33.890625 41.234375 33.9375 41.632812 C 34.109375 43.132812 34.183594 46.75 31.007812 47.738281 C 31.007812 47.738281 28.71875 48.207031 26.960938 47.183594 C 26.726562 47.042969 26.453125 46.980469 26.175781 47.003906 C 25.773438 47.039062 25.410156 47.25 25.179688 47.585938 C 24.621094 48.390625 23.171875 49.804688 20.015625 49.382812 C 20.015625 49.382812 16.1875 49.03125 15.921875 45.054688 C 15.882812 44.523438 15.742188 44.003906 15.476562 43.539062 C 15 42.710938 14.089844 41.507812 12.523438 40.722656 C 11.894531 40.410156 11.613281 39.667969 11.84375 39.003906 C 12.0625 38.378906 12.382812 37.5625 12.851562 36.617188 Z M 12.851562 36.617188 "/>
<path style=" stroke:none;fill-rule:nonzero;fill:rgb(42.745098%,30.196078%,47.843137%);fill-opacity:1;" d="M 23.878906 43.109375 C 23.726562 42.953125 23.515625 42.863281 23.296875 42.863281 C 22.921875 42.863281 22.601562 43.125 22.511719 43.488281 C 21.421875 47.945312 18.625 48.1875 17.128906 47.972656 C 18.339844 49.226562 20.015625 49.382812 20.015625 49.382812 C 23.171875 49.804688 24.621094 48.390625 25.179688 47.585938 C 25.5 45.105469 24.40625 43.648438 23.878906 43.109375 Z M 23.878906 43.109375 "/>
<path style=" stroke:none;fill-rule:nonzero;fill:rgb(42.745098%,30.196078%,47.843137%);fill-opacity:1;" d="M 27.566406 47.46875 C 29.203125 48.105469 31.007812 47.738281 31.007812 47.738281 C 34.183594 46.75 34.109375 43.132812 33.9375 41.632812 C 33.890625 41.234375 33.996094 40.839844 34.203125 40.496094 C 34.410156 40.160156 34.53125 39.804688 34.605469 39.527344 C 34.679688 39.226562 34.578125 38.917969 34.351562 38.710938 C 33.824219 38.226562 33.40625 37.636719 33.144531 37.207031 C 32.972656 36.929688 32.59375 36.878906 32.355469 37.105469 C 31.9375 37.496094 31.484375 37.84375 31.007812 38.15625 C 31.609375 44.761719 28.789062 46.871094 27.566406 47.46875 Z M 27.566406 47.46875 "/>
</g>
</svg>
