<?xml version="1.0" encoding="UTF-8"?>
<svg xmlns="http://www.w3.org/2000/svg" xmlns:xlink="http://www.w3.org/1999/xlink" width="50pt" height="50pt" viewBox="0 0 50 50" version="1.1">
<g id="surface1">
<path style=" stroke:none;fill-rule:nonzero;fill:rgb(98.823529%,83.137255%,38.431373%);fill-opacity:1;" d="M 40.839844 2.417969 L 35.078125 24.242188 L 25.925781 21.824219 L 31.6875 0 Z M 40.839844 2.417969 "/>
<path style=" stroke:none;fill-rule:nonzero;fill:rgb(96.470588%,76.470588%,34.509804%);fill-opacity:1;" d="M 49.996094 4.839844 L 44.234375 26.660156 L 35.082031 24.242188 L 40.84375 2.421875 Z M 49.996094 4.839844 "/>
<path style=" stroke:none;fill-rule:nonzero;fill:rgb(86.27451%,52.941176%,26.666667%);fill-opacity:1;" d="M 44.238281 26.65625 L 25.925781 21.820312 L 36.199219 20.011719 Z M 44.238281 26.65625 "/>
<path style=" stroke:none;fill-rule:nonzero;fill:rgb(86.27451%,52.941176%,26.666667%);fill-opacity:1;" d="M 36.761719 3.175781 C 36.761719 2.828125 36.480469 2.542969 36.132812 2.542969 C 35.78125 2.542969 35.5 2.828125 35.5 3.175781 C 35.5 3.523438 35.78125 3.804688 36.132812 3.804688 C 36.480469 3.804688 36.761719 3.523438 36.761719 3.175781 Z M 36.761719 3.175781 "/>
<path style=" stroke:none;fill-rule:nonzero;fill:rgb(86.27451%,52.941176%,26.666667%);fill-opacity:1;" d="M 45.199219 5.402344 C 45.199219 5.054688 44.917969 4.773438 44.566406 4.773438 C 44.21875 4.773438 43.9375 5.054688 43.9375 5.402344 C 43.9375 5.753906 44.21875 6.035156 44.566406 6.035156 C 44.917969 6.035156 45.199219 5.753906 45.199219 5.402344 Z M 45.199219 5.402344 "/>
<path style=" stroke:none;fill-rule:nonzero;fill:rgb(86.27451%,52.941176%,26.666667%);fill-opacity:1;" d="M 38.359375 11.824219 C 35.816406 11.152344 34.320312 8.425781 35.027344 5.746094 L 35.777344 2.902344 L 36.570312 3.109375 L 35.820312 5.953125 C 35.230469 8.195312 36.460938 10.472656 38.570312 11.03125 C 40.675781 11.585938 42.871094 10.214844 43.464844 7.972656 L 44.214844 5.128906 L 45.007812 5.339844 L 44.257812 8.183594 C 43.550781 10.863281 40.90625 12.496094 38.359375 11.824219 Z M 38.359375 11.824219 "/>
<path style=" stroke:none;fill-rule:nonzero;fill:rgb(100%,100%,100%);fill-opacity:1;" d="M 38.464844 11.421875 C 35.921875 10.75 34.398438 8.132812 35.070312 5.589844 L 35.777344 2.902344 L 36.570312 3.109375 L 35.863281 5.796875 C 35.304688 7.90625 36.566406 10.074219 38.675781 10.628906 C 40.78125 11.183594 42.949219 9.921875 43.507812 7.816406 L 44.214844 5.128906 L 45.007812 5.339844 L 44.300781 8.027344 C 43.628906 10.570312 41.011719 12.09375 38.464844 11.421875 Z M 38.464844 11.421875 "/>
<path style=" stroke:none;fill-rule:nonzero;fill:rgb(98.823529%,83.137255%,38.431373%);fill-opacity:1;" d="M 21.988281 3.992188 C 21.585938 3.175781 19.882812 2.171875 18.980469 2.71875 C 16.617188 4.148438 16.664062 7.445312 16.664062 7.445312 C 16.664062 7.445312 18.476562 6.226562 19.792969 4.921875 C 19.792969 4.921875 21.34375 3.300781 21.988281 3.992188 Z M 21.988281 3.992188 "/>
<path style=" stroke:none;fill-rule:nonzero;fill:rgb(26.666667%,76.862745%,63.137255%);fill-opacity:1;" d="M 21.148438 3.613281 C 20.460938 3.851562 19.75 4.574219 19.613281 4.71875 C 18.730469 5.582031 17.527344 6.574219 16.886719 7.046875 C 16.972656 6.367188 17.390625 4.015625 19.152344 2.953125 C 19.171875 2.945312 19.191406 2.933594 19.214844 2.925781 C 19.238281 2.914062 19.265625 2.902344 19.289062 2.890625 C 19.484375 2.777344 20.117188 2.730469 20.46875 2.753906 C 20.316406 2.695312 20.167969 2.644531 20.019531 2.613281 C 19.703125 2.628906 19.371094 2.679688 19.21875 2.765625 C 19.199219 2.777344 19.179688 2.785156 19.160156 2.792969 C 19.132812 2.804688 19.105469 2.816406 19.082031 2.832031 C 17.066406 4.046875 16.757812 6.875 16.730469 7.191406 L 16.714844 7.34375 L 16.839844 7.253906 C 17.433594 6.835938 18.761719 5.753906 19.71875 4.8125 C 19.847656 4.675781 20.542969 3.976562 21.195312 3.75 C 21.402344 3.679688 21.617188 3.664062 21.757812 3.65625 C 21.71875 3.609375 21.679688 3.566406 21.636719 3.523438 C 21.496094 3.53125 21.324219 3.554688 21.148438 3.613281 Z M 21.148438 3.613281 "/>
<path style=" stroke:none;fill-rule:nonzero;fill:rgb(96.470588%,76.470588%,34.509804%);fill-opacity:1;" d="M 19.792969 4.921875 C 18.476562 6.226562 16.664062 7.445312 16.664062 7.445312 L 20.828125 5.679688 C 20.828125 5.679688 22.195312 4.953125 22.070312 4.226562 C 22.058594 4.152344 22.03125 4.074219 21.988281 3.992188 C 21.34375 3.300781 19.792969 4.921875 19.792969 4.921875 Z M 19.792969 4.921875 "/>
<path style=" stroke:none;fill-rule:nonzero;fill:rgb(98.823529%,83.137255%,38.431373%);fill-opacity:1;" d="M 10.613281 8.1875 C 10.390625 7.300781 11.03125 5.4375 12.074219 5.265625 C 14.800781 4.820312 16.902344 7.359375 16.902344 7.359375 C 16.902344 7.359375 14.734375 7.605469 12.886719 7.46875 C 12.886719 7.46875 10.65625 7.238281 10.613281 8.1875 Z M 10.613281 8.1875 "/>
<path style=" stroke:none;fill-rule:nonzero;fill:rgb(26.666667%,76.862745%,63.137255%);fill-opacity:1;" d="M 11.003906 7.355469 C 11.683594 7.085938 12.695312 7.175781 12.890625 7.195312 C 14.125 7.28125 15.683594 7.253906 16.472656 7.199219 C 15.96875 6.738281 14.125 5.222656 12.09375 5.554688 C 12.074219 5.558594 12.054688 5.566406 12.03125 5.574219 C 12.003906 5.582031 11.980469 5.589844 11.949219 5.59375 C 11.730469 5.636719 11.214844 6.011719 10.964844 6.257812 C 11.039062 6.113281 11.125 5.980469 11.21875 5.859375 C 11.464844 5.667969 11.753906 5.488281 11.925781 5.453125 C 11.945312 5.449219 11.96875 5.445312 11.988281 5.4375 C 12.015625 5.429688 12.042969 5.421875 12.070312 5.414062 C 14.390625 5.03125 16.460938 6.980469 16.691406 7.207031 L 16.800781 7.3125 L 16.644531 7.328125 C 15.921875 7.390625 14.210938 7.433594 12.875 7.335938 C 12.683594 7.316406 11.703125 7.234375 11.058594 7.488281 C 10.855469 7.566406 10.679688 7.695312 10.570312 7.78125 C 10.570312 7.722656 10.570312 7.660156 10.574219 7.597656 C 10.6875 7.515625 10.835938 7.421875 11.003906 7.355469 Z M 11.003906 7.355469 "/>
<path style=" stroke:none;fill-rule:nonzero;fill:rgb(96.470588%,76.470588%,34.509804%);fill-opacity:1;" d="M 12.886719 7.46875 C 14.734375 7.605469 16.902344 7.359375 16.902344 7.359375 L 12.589844 8.714844 C 12.589844 8.714844 11.082031 9.050781 10.703125 8.417969 C 10.664062 8.351562 10.632812 8.273438 10.613281 8.1875 C 10.65625 7.238281 12.886719 7.46875 12.886719 7.46875 Z M 12.886719 7.46875 "/>
<path style=" stroke:none;fill-rule:nonzero;fill:rgb(89.803922%,38.823529%,32.54902%);fill-opacity:1;" d="M 26.289062 7.199219 L 9.414062 13.417969 L 8.308594 10.410156 L 25.183594 4.191406 Z M 26.289062 7.199219 "/>
<path style=" stroke:none;fill-rule:nonzero;fill:rgb(81.960784%,32.156863%,25.490196%);fill-opacity:1;" d="M 29.824219 17.871094 L 13.660156 23.828125 L 9.773438 13.289062 L 25.9375 7.328125 Z M 29.824219 17.871094 "/>
<path style=" stroke:none;fill-rule:nonzero;fill:rgb(80.784314%,25.490196%,17.647059%);fill-opacity:1;" d="M 26.210938 8.066406 L 10.050781 14.03125 L 9.773438 13.289062 L 25.9375 7.328125 Z M 26.210938 8.066406 "/>
<path style=" stroke:none;fill-rule:nonzero;fill:rgb(98.823529%,83.137255%,38.431373%);fill-opacity:1;" d="M 23.191406 20.3125 L 20.292969 21.382812 L 15.296875 7.835938 L 18.199219 6.769531 Z M 23.191406 20.3125 "/>
<path style=" stroke:none;fill-rule:nonzero;fill:rgb(26.666667%,76.862745%,63.137255%);fill-opacity:1;" d="M 20.90625 21.15625 L 20.644531 21.253906 L 15.652344 7.707031 L 15.914062 7.609375 Z M 20.90625 21.15625 "/>
<path style=" stroke:none;fill-rule:nonzero;fill:rgb(26.666667%,76.862745%,63.137255%);fill-opacity:1;" d="M 22.84375 20.441406 L 22.578125 20.539062 L 17.585938 6.992188 L 17.847656 6.894531 Z M 22.84375 20.441406 "/>
<path style=" stroke:none;fill-rule:nonzero;fill:rgb(96.470588%,76.470588%,34.509804%);fill-opacity:1;" d="M 16.273438 12.46875 C 16.277344 11.621094 15.976562 11.074219 15.441406 10 C 14.378906 10.578125 13.8125 10.855469 13.328125 11.550781 C 13.886719 9.523438 14.566406 8.5 15.839844 6.8125 C 16.285156 6.953125 16.507812 7.023438 16.957031 7.160156 C 17.023438 9.261719 16.988281 10.488281 16.273438 12.46875 Z M 16.273438 12.46875 "/>
<path style=" stroke:none;fill-rule:nonzero;fill:rgb(26.666667%,76.862745%,63.137255%);fill-opacity:1;" d="M 16.039062 6.875 C 16.023438 6.871094 16.011719 6.867188 15.996094 6.863281 C 15.988281 6.859375 15.980469 6.859375 15.972656 6.855469 C 15.109375 8.082031 14.191406 9.550781 13.804688 11.015625 C 13.925781 10.90625 14.058594 10.804688 14.203125 10.707031 C 14.707031 9.128906 15.273438 8.308594 16.074219 6.886719 C 16.0625 6.882812 16.050781 6.878906 16.039062 6.875 Z M 16.039062 6.875 "/>
<path style=" stroke:none;fill-rule:nonzero;fill:rgb(26.666667%,76.862745%,63.137255%);fill-opacity:1;" d="M 16.824219 7.121094 C 16.816406 7.117188 16.804688 7.113281 16.800781 7.113281 C 16.785156 7.109375 16.769531 7.101562 16.757812 7.097656 C 16.746094 7.09375 16.734375 7.09375 16.722656 7.089844 C 16.554688 8.707031 16.546875 9.699219 16.042969 11.28125 C 16.105469 11.441406 16.15625 11.597656 16.195312 11.757812 C 16.722656 10.339844 16.820312 8.613281 16.824219 7.121094 Z M 16.824219 7.121094 "/>
<path style=" stroke:none;fill-rule:nonzero;fill:rgb(96.470588%,76.470588%,34.509804%);fill-opacity:1;" d="M 20.367188 10.957031 C 19.8125 10.320312 19.6875 9.703125 19.398438 8.539062 C 20.578125 8.292969 21.191406 8.136719 22.011719 8.351562 C 20.269531 7.167969 19.089844 6.832031 17.027344 6.375 C 16.777344 6.769531 16.652344 6.96875 16.402344 7.367188 C 17.714844 9.007812 18.535156 9.917969 20.367188 10.957031 Z M 20.367188 10.957031 "/>
<path style=" stroke:none;fill-rule:nonzero;fill:rgb(26.666667%,76.862745%,63.137255%);fill-opacity:1;" d="M 16.914062 6.554688 C 16.921875 6.539062 16.929688 6.527344 16.9375 6.515625 C 16.941406 6.507812 16.949219 6.5 16.953125 6.496094 C 18.402344 6.867188 20.054688 7.386719 21.300781 8.25 C 21.136719 8.246094 20.972656 8.257812 20.796875 8.277344 C 19.390625 7.402344 18.429688 7.144531 16.894531 6.585938 C 16.902344 6.570312 16.910156 6.5625 16.914062 6.554688 Z M 16.914062 6.554688 "/>
<path style=" stroke:none;fill-rule:nonzero;fill:rgb(26.666667%,76.862745%,63.137255%);fill-opacity:1;" d="M 16.476562 7.246094 C 16.480469 7.238281 16.488281 7.234375 16.492188 7.226562 C 16.5 7.210938 16.507812 7.199219 16.515625 7.1875 C 16.519531 7.179688 16.527344 7.167969 16.535156 7.15625 C 17.710938 8.28125 18.363281 9.027344 19.769531 9.90625 C 19.828125 10.070312 19.890625 10.222656 19.964844 10.367188 C 18.640625 9.632812 17.449219 8.382812 16.476562 7.246094 Z M 16.476562 7.246094 "/>
<path style=" stroke:none;fill-rule:nonzero;fill:rgb(86.27451%,52.941176%,26.666667%);fill-opacity:1;" d="M 16.320312 6.136719 C 15.675781 6.375 15.347656 7.082031 15.582031 7.71875 L 17.90625 6.863281 C 17.671875 6.226562 16.960938 5.902344 16.320312 6.136719 Z M 16.320312 6.136719 "/>
<path style=" stroke:none;fill-rule:nonzero;fill:rgb(39.215686%,47.45098%,54.117647%);fill-opacity:1;" d="M 22.398438 46.375 C 22.398438 48.378906 20.777344 50 18.773438 50 C 16.773438 50 15.152344 48.378906 15.152344 46.375 C 15.152344 44.375 16.773438 42.753906 18.773438 42.753906 C 20.777344 42.753906 22.398438 44.375 22.398438 46.375 Z M 22.398438 46.375 "/>
<path style=" stroke:none;fill-rule:nonzero;fill:rgb(92.156863%,94.117647%,95.294118%);fill-opacity:1;" d="M 20.808594 46.375 C 20.808594 47.5 19.898438 48.410156 18.773438 48.410156 C 17.652344 48.410156 16.742188 47.5 16.742188 46.375 C 16.742188 45.253906 17.652344 44.34375 18.773438 44.34375 C 19.898438 44.34375 20.808594 45.253906 20.808594 46.375 Z M 20.808594 46.375 "/>
<path style=" stroke:none;fill-rule:nonzero;fill:rgb(39.215686%,47.45098%,54.117647%);fill-opacity:1;" d="M 45.359375 46.375 C 45.359375 48.378906 43.738281 50 41.738281 50 C 39.738281 50 38.113281 48.378906 38.113281 46.375 C 38.113281 44.375 39.738281 42.753906 41.738281 42.753906 C 43.738281 42.753906 45.359375 44.375 45.359375 46.375 Z M 45.359375 46.375 "/>
<path style=" stroke:none;fill-rule:nonzero;fill:rgb(92.156863%,94.117647%,95.294118%);fill-opacity:1;" d="M 43.769531 46.375 C 43.769531 47.5 42.859375 48.410156 41.738281 48.410156 C 40.613281 48.410156 39.703125 47.5 39.703125 46.375 C 39.703125 45.253906 40.613281 44.34375 41.738281 44.34375 C 42.859375 44.34375 43.769531 45.253906 43.769531 46.375 Z M 43.769531 46.375 "/>
<path style=" stroke:none;fill-rule:nonzero;fill:rgb(92.156863%,94.117647%,95.294118%);fill-opacity:1;" d="M 8.640625 11.867188 L 8.640625 13.457031 L 14.71875 13.457031 L 14.71875 16.023438 L 9.464844 16.023438 L 9.464844 17.613281 L 14.71875 17.613281 L 14.71875 20.378906 L 10.632812 20.378906 L 10.632812 21.96875 L 14.71875 21.96875 L 14.71875 24.730469 L 11.527344 24.730469 L 11.527344 26.324219 L 14.71875 26.324219 L 14.71875 29.085938 L 12.628906 29.085938 L 12.628906 30.675781 L 14.71875 30.675781 L 14.71875 34.808594 L 13.789062 34.898438 L 13.941406 36.480469 L 44.820312 33.46875 L 50 11.867188 Z M 47.367188 16.023438 L 41.332031 16.023438 L 41.332031 13.457031 L 47.984375 13.457031 Z M 28.820312 24.730469 L 28.820312 21.96875 L 33.484375 21.96875 L 33.484375 24.730469 Z M 33.484375 26.324219 L 33.484375 29.085938 L 28.820312 29.085938 L 28.820312 26.324219 Z M 28.820312 20.378906 L 28.820312 17.617188 L 33.484375 17.617188 L 33.484375 20.378906 Z M 35.078125 17.617188 L 39.742188 17.617188 L 39.742188 20.378906 L 35.078125 20.378906 Z M 35.078125 16.023438 L 35.078125 13.457031 L 39.742188 13.457031 L 39.742188 16.023438 Z M 33.484375 16.023438 L 28.820312 16.023438 L 28.820312 13.457031 L 33.484375 13.457031 Z M 27.230469 16.023438 L 22.566406 16.023438 L 22.566406 13.457031 L 27.230469 13.457031 Z M 27.230469 17.617188 L 27.230469 20.378906 L 22.566406 20.378906 L 22.566406 17.617188 Z M 27.230469 21.96875 L 27.230469 24.730469 L 22.566406 24.730469 L 22.566406 21.96875 Z M 27.230469 26.324219 L 27.230469 29.085938 L 22.566406 29.085938 L 22.566406 26.324219 Z M 27.230469 30.675781 L 27.230469 33.585938 L 22.566406 34.042969 L 22.566406 30.675781 Z M 28.820312 30.675781 L 33.484375 30.675781 L 33.484375 32.976562 L 28.820312 33.433594 Z M 35.078125 30.675781 L 39.742188 30.675781 L 39.742188 32.367188 L 35.078125 32.820312 Z M 35.078125 29.085938 L 35.078125 26.324219 L 39.742188 26.324219 L 39.742188 29.085938 Z M 35.078125 24.730469 L 35.078125 21.96875 L 39.742188 21.96875 L 39.742188 24.730469 Z M 41.332031 21.96875 L 45.941406 21.96875 L 45.28125 24.730469 L 41.332031 24.730469 Z M 41.332031 20.378906 L 41.332031 17.617188 L 46.988281 17.617188 L 46.324219 20.378906 Z M 16.308594 13.457031 L 20.976562 13.457031 L 20.976562 16.023438 L 16.308594 16.023438 Z M 16.308594 17.617188 L 20.976562 17.617188 L 20.976562 20.378906 L 16.308594 20.378906 Z M 16.308594 21.96875 L 20.976562 21.96875 L 20.976562 24.730469 L 16.308594 24.730469 Z M 16.308594 26.324219 L 20.976562 26.324219 L 20.976562 29.085938 L 16.308594 29.085938 Z M 16.308594 30.675781 L 20.976562 30.675781 L 20.976562 34.195312 L 16.308594 34.652344 Z M 41.332031 32.210938 L 41.332031 30.675781 L 43.855469 30.675781 L 43.539062 31.996094 Z M 44.238281 29.085938 L 41.332031 29.085938 L 41.332031 26.324219 L 44.898438 26.324219 Z M 44.238281 29.085938 "/>
<path style=" stroke:none;fill-rule:nonzero;fill:rgb(10.980392%,45.882353%,63.137255%);fill-opacity:1;" d="M 47.339844 40.035156 L 13.828125 40.035156 C 12.910156 40.035156 12.164062 39.289062 12.164062 38.371094 L 12.164062 38.273438 C 12.164062 37.414062 12.8125 36.6875 13.667969 36.617188 C 13.957031 36.589844 14.222656 36.441406 14.390625 36.207031 C 14.558594 35.980469 14.617188 35.691406 14.554688 35.414062 L 7.671875 5.707031 L 3.992188 5.707031 L 3.992188 7.296875 L 6.410156 7.296875 L 12.859375 35.164062 C 11.519531 35.574219 10.574219 36.8125 10.574219 38.273438 L 10.574219 38.371094 C 10.574219 40.167969 12.03125 41.625 13.828125 41.625 L 47.339844 41.625 C 47.777344 41.625 48.136719 41.269531 48.136719 40.828125 C 48.136719 40.390625 47.777344 40.035156 47.339844 40.035156 Z M 47.339844 40.035156 "/>
<path style=" stroke:none;fill-rule:nonzero;fill:rgb(89.803922%,38.823529%,32.54902%);fill-opacity:1;" d="M 1.144531 5.359375 C 0.511719 5.359375 0 5.871094 0 6.503906 C 0 7.136719 0.511719 7.648438 1.144531 7.648438 L 5.417969 7.648438 L 5.417969 5.359375 Z M 1.144531 5.359375 "/>
</g>
</svg>
