<?xml version="1.0" encoding="UTF-8"?>
<svg xmlns="http://www.w3.org/2000/svg" xmlns:xlink="http://www.w3.org/1999/xlink" width="200pt" height="200pt" viewBox="0 0 200 200" version="1.1">
<defs>
<linearGradient id="linear0" gradientUnits="userSpaceOnUse" x1="235.8325" y1="403.4248" x2="235.8325" y2="217.3378" gradientTransform="matrix(0.390625,0,0,0.390625,0,0)">
<stop offset="0.0051" style="stop-color:rgb(100%,76.470588%,69.019608%);stop-opacity:1;"/>
<stop offset="1" style="stop-color:rgb(90.980392%,53.72549%,48.235294%);stop-opacity:1;"/>
</linearGradient>
<linearGradient id="linear1" gradientUnits="userSpaceOnUse" x1="272.7012" y1="277.0254" x2="272.7012" y2="145.3401" gradientTransform="matrix(0.390625,0,0,0.390625,0,0)">
<stop offset="0.0051" style="stop-color:rgb(100%,76.470588%,69.019608%);stop-opacity:1;"/>
<stop offset="1" style="stop-color:rgb(90.980392%,53.72549%,48.235294%);stop-opacity:1;"/>
</linearGradient>
</defs>
<g id="surface1">
<path style=" stroke:none;fill-rule:nonzero;fill:rgb(67.843137%,22.745098%,29.803922%);fill-opacity:1;" d="M 129.703125 72.652344 L 128.976562 105.316406 C 128.976562 105.316406 127.722656 132.464844 102.648438 127.039062 C 102.648438 127.039062 95.582031 107.242188 104.042969 68.582031 Z M 129.703125 72.652344 "/>
<path style=" stroke:none;fill-rule:nonzero;fill:url(#linear0);" d="M 103.246094 107.65625 C 103.246094 107.65625 99.277344 125.183594 109.695312 129.957031 C 110.980469 130.542969 112.390625 130.796875 113.800781 130.863281 C 118.171875 131.074219 132.117188 133.132812 129.339844 150.949219 C 129.339844 150.949219 122.863281 162.738281 92.761719 165.636719 C 92.761719 165.636719 66.527344 165.828125 54.542969 147.46875 C 54.542969 147.46875 58.410156 130.074219 69.8125 129.300781 C 69.8125 129.300781 75.960938 129.203125 80.550781 127.226562 C 83.078125 126.140625 84.804688 123.757812 85.15625 121.03125 L 87.980469 99.003906 Z M 103.246094 107.65625 "/>
<path style=" stroke:none;fill-rule:nonzero;fill:rgb(90.980392%,53.72549%,48.235294%);fill-opacity:1;" d="M 87.976562 99.003906 L 86.355469 111.667969 L 105.917969 127.039062 C 100.386719 120.308594 103.246094 107.65625 103.246094 107.65625 Z M 87.976562 99.003906 "/>
<path style=" stroke:none;fill-rule:nonzero;fill:rgb(90.980392%,53.72549%,48.235294%);fill-opacity:1;" d="M 129.335938 150.949219 C 132.050781 133.550781 118.820312 131.179688 114.128906 130.882812 C 118.023438 133.570312 125.144531 140.636719 124.164062 156 C 128.09375 153.210938 129.335938 150.949219 129.335938 150.949219 Z M 129.335938 150.949219 "/>
<path style=" stroke:none;fill-rule:nonzero;fill:rgb(90.980392%,53.72549%,48.235294%);fill-opacity:1;" d="M 92.777344 156.445312 C 94.125 157.476562 97.113281 160.332031 97.398438 165.636719 L 102.371094 165.636719 C 102.371094 165.636719 100.894531 158.800781 104.445312 154.933594 C 104.589844 154.777344 104.421875 154.539062 104.226562 154.621094 C 102.90625 155.179688 100.492188 157.214844 99.230469 159.378906 C 99.230469 159.378906 97.261719 156.6875 92.933594 156.089844 C 92.730469 156.0625 92.613281 156.324219 92.777344 156.445312 Z M 92.777344 156.445312 "/>
<path style=" stroke:none;fill-rule:nonzero;fill:rgb(20%,20%,27.058824%);fill-opacity:1;" d="M 95.324219 136.027344 C 94.050781 136.027344 83.476562 135.066406 79.921875 126.589844 C 79.628906 125.886719 80 125.074219 80.730469 124.851562 C 81.347656 124.664062 82.015625 124.96875 82.265625 125.5625 C 85.347656 132.996094 95.023438 133.46875 95.417969 133.472656 C 101.835938 133.46875 105.121094 128.941406 106.253906 126.953125 C 106.554688 126.421875 107.191406 126.195312 107.765625 126.394531 C 108.515625 126.652344 108.851562 127.527344 108.453125 128.21875 C 106.988281 130.761719 103.035156 136.027344 95.464844 136.027344 C 95.460938 136.027344 95.410156 136.027344 95.324219 136.027344 Z M 95.324219 136.027344 "/>
<path style=" stroke:none;fill-rule:nonzero;fill:rgb(42.745098%,30.196078%,47.843137%);fill-opacity:1;" d="M 72.871094 61.359375 L 70.632812 74.167969 C 70.632812 74.167969 54.683594 73.773438 36.492188 79.148438 C 36.492188 79.148438 2.515625 89.945312 4.796875 54.574219 Z M 72.871094 61.359375 "/>
<path style=" stroke:none;fill-rule:nonzero;fill:url(#linear1);" d="M 124.03125 72.222656 L 123.136719 102.609375 C 123.128906 102.902344 123.105469 103.1875 123.0625 103.480469 C 122.882812 104.75 122.230469 107.996094 120.117188 110.335938 C 118.355469 112.289062 115.601562 113.003906 113.023438 112.488281 C 107.816406 111.445312 94.738281 108.144531 89.019531 100.457031 L 89.019531 65.894531 Z M 124.03125 72.222656 "/>
<path style=" stroke:none;fill-rule:nonzero;fill:rgb(90.980392%,53.72549%,48.235294%);fill-opacity:1;" d="M 120.117188 110.335938 C 122.226562 107.996094 122.882812 104.75 123.0625 103.480469 C 123.105469 103.1875 123.128906 102.902344 123.136719 102.609375 L 124.03125 72.222656 L 89.015625 65.894531 L 89.015625 75.53125 C 94.542969 77.085938 110.007812 81.8125 117.386719 87.832031 C 118.410156 88.667969 118.96875 89.949219 118.96875 91.269531 L 118.96875 104.488281 C 118.96875 104.488281 119.0625 108.609375 117.117188 112.25 C 118.25 111.875 119.292969 111.246094 120.117188 110.335938 Z M 120.117188 110.335938 "/>
<path style=" stroke:none;fill-rule:nonzero;fill:rgb(90.980392%,53.72549%,48.235294%);fill-opacity:1;" d="M 109.171875 89.273438 L 114.226562 89.273438 C 115.023438 89.273438 115.554688 90.121094 115.179688 90.824219 C 114.589844 91.929688 113.527344 93.222656 111.777344 93.222656 C 111.777344 93.222656 109.28125 93.183594 108.1875 90.769531 C 107.871094 90.070312 108.40625 89.273438 109.171875 89.273438 Z M 109.171875 89.273438 "/>
<path style=" stroke:none;fill-rule:nonzero;fill:rgb(20%,20%,27.058824%);fill-opacity:1;" d="M 117.523438 78.6875 C 116.722656 78.6875 116.074219 78.039062 116.074219 77.242188 L 116.074219 74.097656 C 116.074219 73.296875 116.722656 72.652344 117.523438 72.652344 C 118.320312 72.652344 118.96875 73.296875 118.96875 74.097656 L 118.96875 77.242188 C 118.96875 78.039062 118.320312 78.6875 117.523438 78.6875 Z M 117.523438 78.6875 "/>
<path style=" stroke:none;fill-rule:nonzero;fill:rgb(88.627451%,35.294118%,42.352941%);fill-opacity:1;" d="M 109.988281 69.65625 C 109.988281 69.65625 108.15625 83.519531 92.761719 90.101562 L 90.941406 116.332031 C 90.214844 126.773438 81.902344 135.332031 71.445312 135.757812 C 71.03125 135.773438 70.609375 135.78125 70.175781 135.777344 C 66.859375 135.75 63.777344 134.058594 61.789062 131.40625 L 61.777344 131.394531 C 60.019531 129.050781 59.277344 126.109375 59.707031 123.210938 C 60.464844 118.140625 62.199219 109.574219 66.035156 100.605469 C 67.222656 97.824219 67.726562 94.804688 67.601562 91.785156 C 67.265625 83.613281 66.90625 67.578125 68.960938 62.238281 Z M 109.988281 69.65625 "/>
<path style=" stroke:none;fill-rule:nonzero;fill:rgb(67.843137%,22.745098%,29.803922%);fill-opacity:1;" d="M 67.539062 71.84375 C 72.433594 72.773438 83.574219 75.070312 90.921875 77.972656 C 92.445312 78.570312 93.023438 80.402344 92.148438 81.78125 C 91.363281 83.015625 90.265625 84.523438 88.863281 85.945312 C 87.5 87.324219 86.769531 89.203125 86.863281 91.140625 C 87.339844 100.957031 87.324219 129.914062 71.066406 135.765625 C 71.070312 135.773438 71.066406 135.757812 71.066406 135.769531 C 81.699219 135.535156 90.207031 126.898438 90.941406 116.332031 L 92.761719 90.101562 C 108.15625 83.519531 109.988281 69.65625 109.988281 69.65625 L 68.964844 62.238281 C 68.1875 64.25 67.757812 67.785156 67.539062 71.84375 Z M 67.539062 71.84375 "/>
<path style=" stroke:none;fill-rule:nonzero;fill:rgb(57.647059%,43.529412%,62.745098%);fill-opacity:1;" d="M 4.796875 54.574219 C 4.796875 54.574219 72.769531 65.175781 134.820312 76.398438 C 134.820312 76.398438 157.234375 79.890625 171.125 79.003906 C 172.1875 78.9375 173.226562 78.695312 174.226562 78.324219 C 179.53125 76.347656 195.570312 68.945312 195.308594 51.765625 C 195.308594 51.765625 169.105469 45.496094 127.003906 49.128906 C 127.003906 49.128906 130.703125 25.496094 92.761719 3.222656 C 91.171875 2.289062 89.304688 1.941406 87.5 2.320312 C 82.316406 3.414062 70.207031 7.351562 50.285156 21.5625 C 50.285156 21.5625 47.886719 19.566406 44.777344 17.777344 C 43.144531 16.839844 41.125 16.921875 39.539062 17.9375 C 36.617188 19.800781 31.734375 23.476562 27.394531 29.398438 C 26.304688 30.878906 27.804688 32.882812 29.523438 32.234375 C 31.875 31.351562 34.617188 30.414062 36.910156 29.886719 C 38.558594 29.507812 40.28125 29.859375 41.691406 30.796875 C 43.886719 32.261719 47.417969 34.8125 50.332031 37.835938 C 51.78125 39.339844 54.027344 39.726562 55.875 38.75 C 59.882812 36.632812 66.628906 33.320312 70.371094 32.886719 L 76.140625 40.523438 C 76.140625 40.523438 71.652344 46.5625 68.660156 52.761719 C 68.660156 52.761719 40.734375 56.171875 4.796875 54.574219 Z M 4.796875 54.574219 "/>
<path style=" stroke:none;fill-rule:nonzero;fill:rgb(42.745098%,30.196078%,47.843137%);fill-opacity:1;" d="M 59.792969 36.769531 C 63.453125 34.996094 67.683594 33.195312 70.371094 32.886719 L 67.082031 27.558594 C 66.585938 26.757812 65.40625 26.832031 65.023438 27.6875 C 64.046875 29.863281 62.269531 33.433594 59.792969 36.769531 Z M 59.792969 36.769531 "/>
<path style=" stroke:none;fill-rule:nonzero;fill:rgb(42.745098%,30.196078%,47.843137%);fill-opacity:1;" d="M 110.570312 45.839844 C 110.722656 47.644531 110.054688 49.417969 108.726562 50.648438 C 107.902344 51.410156 106.90625 52.304688 105.882812 53.15625 C 104.894531 53.976562 105.4375 55.578125 106.722656 55.601562 C 114.578125 55.757812 131.734375 56.273438 139.828125 57.890625 C 139.828125 57.890625 149.460938 60.011719 152.617188 66.6875 C 153.441406 68.425781 153.320312 70.460938 152.253906 72.0625 C 151.085938 73.816406 148.957031 76.152344 145.308594 77.769531 C 152.992188 78.632812 163.378906 79.5 171.125 79.003906 C 172.1875 78.9375 173.226562 78.695312 174.226562 78.324219 C 179.53125 76.347656 195.570312 68.945312 195.308594 51.765625 C 195.308594 51.765625 169.105469 45.496094 127.003906 49.128906 C 127.003906 49.128906 130.703125 25.496094 92.761719 3.222656 C 92.761719 3.21875 108.207031 17.984375 110.570312 45.839844 Z M 110.570312 45.839844 "/>
<path style=" stroke:none;fill-rule:nonzero;fill:rgb(100%,100%,100%);fill-opacity:1;" d="M 104.042969 137.847656 C 104.042969 133.871094 100.816406 130.644531 96.839844 130.644531 C 92.859375 130.644531 89.636719 133.871094 89.636719 137.847656 C 89.636719 141.046875 91.722656 143.757812 94.609375 144.695312 L 94.90625 147.621094 C 94.988281 148.46875 95.742188 149.082031 96.589844 148.996094 L 99.53125 148.703125 C 100.378906 148.617188 100.992188 147.863281 100.910156 147.015625 L 100.601562 143.980469 C 102.664062 142.714844 104.042969 140.445312 104.042969 137.847656 Z M 104.042969 137.847656 "/>
<path style=" stroke:none;fill-rule:nonzero;fill:rgb(20%,20%,27.058824%);fill-opacity:1;" d="M 96.488281 138.359375 C 96.488281 139.40625 95.640625 140.253906 94.59375 140.253906 C 93.546875 140.253906 92.699219 139.40625 92.699219 138.359375 C 92.699219 137.316406 93.546875 136.46875 94.59375 136.46875 C 95.640625 136.46875 96.488281 137.316406 96.488281 138.359375 Z M 96.488281 138.359375 "/>
<path style=" stroke:none;fill-rule:nonzero;fill:rgb(20%,20%,27.058824%);fill-opacity:1;" d="M 101.976562 137.664062 C 101.976562 138.710938 101.128906 139.558594 100.085938 139.558594 C 99.039062 139.558594 98.191406 138.710938 98.191406 137.664062 C 98.191406 136.617188 99.039062 135.769531 100.085938 135.769531 C 101.128906 135.769531 101.976562 136.617188 101.976562 137.664062 Z M 101.976562 137.664062 "/>
<path style=" stroke:none;fill-rule:nonzero;fill:rgb(57.647059%,43.529412%,62.745098%);fill-opacity:1;" d="M 51.414062 146.472656 C 52.160156 144.976562 54.117188 144.601562 55.347656 145.730469 C 61.53125 151.394531 79.207031 165.335938 100.054688 161.769531 C 100.054688 161.769531 118.421875 158.839844 129.414062 148.417969 C 130.367188 147.515625 131.886719 147.714844 132.574219 148.832031 C 133.632812 150.542969 135.292969 152.902344 137.414062 154.84375 C 138.320312 155.671875 138.726562 156.914062 138.421875 158.105469 C 138.132812 159.21875 137.644531 160.636719 136.820312 161.984375 C 135.984375 163.355469 135.554688 164.933594 135.742188 166.53125 C 136.441406 172.527344 136.730469 187.003906 124.03125 190.953125 C 124.03125 190.953125 114.878906 192.832031 107.847656 188.730469 C 106.898438 188.175781 105.804688 187.921875 104.707031 188.015625 C 103.09375 188.148438 101.640625 189.003906 100.714844 190.335938 C 98.484375 193.558594 92.679688 199.210938 80.054688 197.527344 C 80.054688 197.527344 64.757812 196.121094 63.679688 180.226562 C 63.535156 178.09375 62.964844 176.015625 61.902344 174.160156 C 60.007812 170.847656 56.359375 166.023438 50.089844 162.890625 C 47.574219 161.636719 46.453125 158.667969 47.375 156.011719 C 48.242188 153.515625 49.539062 150.242188 51.414062 146.472656 Z M 51.414062 146.472656 "/>
<path style=" stroke:none;fill-rule:nonzero;fill:rgb(42.745098%,30.196078%,47.843137%);fill-opacity:1;" d="M 95.519531 172.433594 C 94.910156 171.804688 94.070312 171.453125 93.195312 171.453125 C 91.691406 171.453125 90.398438 172.496094 90.042969 173.953125 C 85.691406 191.78125 74.492188 192.757812 68.519531 191.886719 C 73.363281 196.90625 80.054688 197.523438 80.054688 197.523438 C 92.679688 199.210938 98.484375 193.558594 100.71875 190.335938 C 101.992188 180.421875 97.621094 174.601562 95.519531 172.433594 Z M 95.519531 172.433594 "/>
<path style=" stroke:none;fill-rule:nonzero;fill:rgb(42.745098%,30.196078%,47.843137%);fill-opacity:1;" d="M 110.269531 189.878906 C 116.8125 192.425781 124.03125 190.953125 124.03125 190.953125 C 136.730469 187 136.441406 172.527344 135.742188 166.527344 C 135.554688 164.929688 135.984375 163.355469 136.820312 161.984375 C 137.644531 160.636719 138.132812 159.21875 138.421875 158.105469 C 138.726562 156.914062 138.320312 155.671875 137.414062 154.84375 C 135.292969 152.902344 133.632812 150.542969 132.574219 148.828125 C 131.886719 147.714844 130.367188 147.515625 129.417969 148.417969 C 127.757812 149.988281 125.933594 151.382812 124.03125 152.628906 L 124.03125 152.632812 C 126.445312 179.046875 115.164062 187.484375 110.269531 189.878906 Z M 110.269531 189.878906 "/>
</g>
</svg>
